<svg width="32" height="32" viewBox="0 0 32 32" xmlns="http://www.w3.org/2000/svg">
<style>
  path#fav-letter {fill: black;}
  path#fav-circle {fill: #05f;}
  @media (prefers-color-scheme: dark) {
    path#fav-letter {fill: white;}
    path#fav-circle {fill: #f50;}
  }
</style>
<path id="fav-letter" d="M19.7488 21.4521H12.1558L10.6372 25.7668H8.39551L14.7591 8.53198H17.1696L23.5091 25.7668H21.2674L19.7488 21.4521ZM12.879 19.5237H19.0498L15.9885 10.5327H15.9403L12.879 19.5237Z"/>
<path id="fav-circle" d="M4.37329 5.57944C7.74278 2.27494 13.1118 0.208956 20.7798 0L20.8138 1.24633C13.3375 1.45006 8.31646 3.45864 5.24628 6.4696C2.18515 9.47167 0.976866 13.5553 1.29572 18.105C1.88394 26.4982 10.1664 31.4666 19.6024 30.6718C24.5872 30.2518 27.6048 27.5261 29.227 24.3533C30.8695 21.141 31.0597 17.51 30.3966 15.4C28.8716 10.547 26.0888 7.36601 22.5919 5.83156C19.0878 4.29393 14.7702 4.36742 10.1036 6.21938L9.64367 5.06051C14.5399 3.11743 19.2129 2.98726 23.0929 4.68985C26.9802 6.39561 29.9748 9.89874 31.5861 15.0262C32.3595 17.4876 32.1086 21.4562 30.3371 24.9209C28.5455 28.4249 25.1765 31.4534 19.707 31.9141C9.89529 32.7406 0.70845 27.5592 0.0519753 18.1921C-0.286288 13.3655 0.994741 8.89281 4.37329 5.57944Z"/>
</svg>
